<?xml version="1.0" encoding="utf-8"?>
<!-- Generator: Adobe Illustrator 16.0.0, SVG Export Plug-In . SVG Version: 6.00 Build 0)  -->
<!DOCTYPE svg PUBLIC "-//W3C//DTD SVG 1.1//EN" "http://www.w3.org/Graphics/SVG/1.1/DTD/svg11.dtd">
<svg version="1.1" id="Layer_1" xmlns="http://www.w3.org/2000/svg" xmlns:xlink="http://www.w3.org/1999/xlink" x="0px" y="0px"
	 width="100px" height="100px" viewBox="0 0 100 100" enable-background="new 0 0 100 100" xml:space="preserve">
<g>
	<path fill="#FFFFFF" stroke="#FFFFFF" stroke-width="3" stroke-miterlimit="10" d="M34.385,8.292
		c1.822-5.402,10.218-5.433,14.108-1.644c2.167-1.087,4.192-2.178,6.292-3.11c0.631-0.281,1.587-0.389,2.178-0.113
		c4.428,2.065,9.915,2.221,12.837,7.044c0.222,0.364,0.704,0.594,1.101,0.821c0.408,0.232,0.998,0.271,1.271,0.594
		c2.903,3.451,7.126,5.551,9.455,9.633c2.298,4.024,4.527,8.061,4.922,12.728c0.146,1.705,0.896,2.847,1.555,4.258
		c0.926,1.982,1.227,4.367,1.312,6.6c0.091,2.317-0.068,4.568,0.354,6.943c0.736,4.146-0.021,8.334-1.605,12.302
		c-0.219,0.543-0.624,1.166-0.518,1.658c0.836,3.803-1.053,6.488-3.47,9.021c-0.437,0.457-0.793,1.082-0.954,1.693
		c-0.812,3.059-2.779,5.16-5.326,6.887c-0.959,0.646-1.855,1.479-2.553,2.402c-2.113,2.812-4.9,4.348-8.335,4.895
		c-0.622,0.1-1.374,0.478-1.731,0.97c-2.76,3.786-10.555,5.909-14.74,3.79c-1.145-0.579-1.9-0.665-3.094-0.062
		c-2.708,1.371-5.739,1.608-8.424,0.254c-1.793-0.902-3.127-2.719-5.18-4.594c-3.814,0.467-7.411-1.771-10.653-4.826
		c-1.967-1.854-4.066-3.604-5.789-5.67c-1.009-1.207-1.371-2.947-2.075-4.424c-0.267-0.56-0.586-1.156-1.039-1.556
		c-3.108-2.744-4.518-5.968-3.213-10.127c0.145-0.464-0.155-1.252-0.513-1.657C8.086,60.199,7.63,53.316,9.68,50.16
		c0.368-0.565,0.567-1.463,0.416-2.106c-0.708-3.035-0.784-6.017,0.229-8.991c1.261-3.702,2.414-7.446,3.819-11.094
		c0.904-2.347,2.279-4.446,4.692-5.642c0.395-0.196,0.736-0.751,0.859-1.206c1.543-5.708,5.513-9.32,10.494-11.952
		C31.375,8.543,32.913,8.58,34.385,8.292z M51.357,79.904c0.498-0.239,1.051-0.492,1.592-0.766c1.109-0.562,2.259-0.9,2.974,0.463
		c0.711,1.354-0.157,2.138-1.303,2.691c-0.427,0.207-0.837,0.455-1.281,0.609c-1.18,0.41-1.569,1.152-1.536,2.441
		c0.041,1.536-0.053,3.158-0.517,4.606c-0.656,2.056,0.467,2.671,1.995,2.874c3.148,0.417,5.964-0.527,8.546-2.375
		c-0.597-1.258-1.115-2.355-1.638-3.451c-0.524-1.104-0.586-2.189,0.644-2.786c1.233-0.598,2.179,0.077,2.538,1.243
		c0.615,1.997,2.076,2.04,3.678,1.786c2.159-0.343,4.109-1.24,5.143-3.224c0.916-1.765,2.096-2.899,3.951-3.693
		c2.104-0.9,3.318-2.737,3.682-5.273c-2.48,0-4.708,0-6.936,0c-2.254,0-4.508,0-6.99,0c0.358,1.127,0.836,1.906,0.783,2.648
		c-0.061,0.867-0.344,2.111-0.953,2.468c-1.172,0.685-1.979-0.256-2.401-1.392c-0.188-0.508-0.39-1.019-0.491-1.545
		c-0.372-1.926-1.342-3.267-3.279-3.943c-1.166-0.407-2.054-1.285-1.281-2.663c0.748-1.335,1.933-1.076,2.984-0.422
		c3.498,2.167,7.262,0.912,10.465,1.18c-0.418-2.153-0.879-4.112-1.154-6.1c-0.188-1.347,0.016-2.771,1.824-2.729
		c1.641,0.037,1.922,1.387,1.725,2.658c-0.307,1.98,0.965,3.255,1.744,4.801c1.103,2.194,3.01,1.344,4.623,1.398
		c3.094,0.107,4.629-2.396,3.32-5.287c-0.527-1.168-1.166-2.287-1.728-3.441c-0.593-1.213-1.494-2.572,0.219-3.516
		c1.64-0.9,2.229,0.542,2.896,1.641c0.039,0.062,0.205,0.047,0.543,0.112c0.084-3.483,2.064-6.978-0.662-10.295
		c-0.176-0.211,0.018-0.736,0.064-1.112c0.262-2.064,0.686-4.124,0.739-6.193c0.031-1.175-0.528-2.368-0.899-3.851
		c-1.608,1.071-2.789,1.843-3.955,2.634c-1.067,0.724-2.188,1.048-2.985-0.23c-0.707-1.129-0.14-2.041,0.926-2.703
		c0.918-0.572,1.946-1.063,2.661-1.834c0.675-0.73,1.484-1.828,1.4-2.684c-0.314-3.271-1.586-6.269-3.498-9.58
		c-1.543,5.696-6.729,7.134-9.488,9.986c0.195,2.196,0.541,3.94,0.411,5.648c-0.054,0.708-1.123,1.337-1.731,2.002
		c-0.595-0.678-1.505-1.276-1.71-2.057c-0.295-1.12-0.073-2.375-0.073-3.9c-1.168,0.564-2.062,0.987-2.947,1.427
		c-2.777,1.377-3.93,1.131-5.516-1.483c-0.33-0.542-0.341-1.787,0.029-2.121c0.489-0.441,1.842-0.682,2.225-0.34
		c1.131,1.012,2.016,0.674,3.078,0.07c0.995-0.566,2.154-0.893,3.061-1.569c3.562-2.666,7.896-4.487,9.623-9.165
		c0.938-2.538,0.791-3.301-1.846-4.072c-1.135-0.332-1.656-0.919-2.229-1.979c-0.639-1.185-1.854-2.293-3.086-2.856
		c-1.163-0.534-1.941-1.059-2.614-2.187c-0.688-1.154-1.897-1.997-2.882-2.975c-0.169,0.131-0.338,0.261-0.507,0.392
		c0,0.735,0.207,1.555-0.054,2.183c-0.313,0.754-1.023,1.346-1.562,2.007c-0.64-0.642-1.403-1.203-1.864-1.954
		c-0.273-0.445-0.05-1.188-0.072-1.796c-0.078-1.974-1.328-3.262-3.291-3.405c-2.09-0.153-4.931,1.313-5.004,3.301
		c-0.104,2.72,0.053,5.804,1.256,8.132c1.699,3.29,8.055,3.83,11.201,1.688c0.539-0.367,1.6-0.444,2.162-0.155
		c0.45,0.232,0.896,1.593,0.688,1.812c-1.114,1.146-2.363,2.831-3.703,2.967c-4.045,0.409-8.295,0.799-11.587-2.578
		c-0.12-0.125-0.37-0.121-0.733-0.227c-2.271,3.368,0.312,6.794-0.043,10.201c-0.357,3.444,0.463,7.011,0.779,10.668
		c1.535,0,2.877-0.014,4.219,0.004c1.209,0.016,2.217,0.435,2.221,1.811c0.002,1.381-0.965,1.787-2.209,1.769
		c-1.42-0.021-2.845,0.06-4.262-0.014c-1.045-0.056-1.604,0.282-1.873,1.333c-0.668,2.617-0.834,5.175,0.216,7.755
		c0.648,1.594,1.105,3.264,1.688,5.021c7.66,1.395,8.674,0.729,9.238-6.271c0.01-0.125-0.053-0.254-0.082-0.383
		c-0.135,0.112-0.271,0.227-0.403,0.338c-0.747-0.834-2.099-1.654-2.114-2.504c-0.037-1.882,1.703-1.666,3.053-1.666
		c3.096-0.001,6.188,0,9.277,0c0.036-0.517,0.082-0.787,0.071-1.054c-0.052-1.276,0.248-2.466,1.726-2.478
		c1.564-0.012,2.043,1.202,1.863,2.557c-0.189,1.433,0.52,2.082,1.707,2.551c1.206,0.475,2.316,1.188,1.631,2.711
		c-0.695,1.545-1.879,0.948-3.105,0.562c-1.76-0.549-3.59-1.111-5.406-1.18c-4.489-0.168-4.494-0.056-4.951,4.33
		c-0.51,4.881-2.107,6.305-7.072,6.307c-1.859,0-3.722,0-5.742,0c0.068,4.096-0.205,7.797-3.268,10.264
		C49.097,76.355,50.17,78.041,51.357,79.904z M19.199,76.76c-0.146,0.273-0.293,0.547-0.44,0.819
		c3.457,2.983,6.757,6.19,10.455,8.839c1.377,0.986,3.685,0.854,5.571,0.873c0.85,0.009,1.758-0.789,2.552-1.348
		c1.215-0.854,2.207-3.123,3.936-1.309c1.686,1.771-0.534,2.77-1.467,3.934c-0.21,0.264-0.63,0.451-0.684,0.728
		c-0.145,0.742-0.47,1.722-0.142,2.235c1.17,1.844,3.164,1.523,4.966,1.406c1.541-0.101,2.881-0.612,3.459-2.312
		c1.107-3.251,1.154-6.493,0.11-9.754c-0.997-3.113-2.394-3.825-5.597-4.12c-3.374-0.312-5.654,0.662-7.008,3.815
		c-0.522,1.219-1.542,2.127-2.896,1.291c-1.525-0.94-0.801-2.166-0.04-3.309c0.934-1.402,2.11-2.742,2.633-4.295
		c0.891-2.645,1.358-5.431,1.993-8.16c0.127-0.548,0.206-1.105,0.342-1.854c-2.916,0-5.549,0.085-8.175-0.026
		c-2.243-0.094-4.254-0.138-5.124,2.597c-0.146,0.459-1.617,0.851-2.297,0.654c-0.429-0.123-0.946-1.594-0.699-2.119
		c0.986-2.109,1.741-4.185,1.654-6.578c-0.019-0.51,1.045-1.389,1.696-1.479c0.49-0.067,1.269,0.756,1.639,1.354
		c0.312,0.506,0.222,1.262,0.3,1.836c0.284,0.096,0.411,0.172,0.538,0.172c3.178,0.016,6.357-0.006,9.535,0.035
		c4,0.051,5.336,1.883,4.21,5.77c-0.319,1.102-0.781,2.156-1.146,3.246c-0.355,1.062-0.667,2.14-0.998,3.207
		c5.088,1.519,9.182-0.954,9.529-5.732c0.389-5.367-0.818-10.374-2.398-14.966c-4.763-0.646-9.369-1.271-14.088-1.911
		c0,0.281,0.18,0.871-0.036,1.189c-0.503,0.742-1.198,1.357-1.814,2.025c-0.581-0.705-1.591-1.363-1.672-2.123
		c-0.577-5.382,0.514-6.244,5.675-4.75c0.324,0.093,0.66,0.161,0.966,0.298c3.668,1.626,7.527,1.254,11.284,1.17
		c1.92-3.933,3.005-7.83,1.555-12.164c-0.459-1.373-0.037-3.03-0.086-4.554c-0.049-1.519-0.184-3.035-0.292-4.718
		c-1.452,0-2.59,0.016-3.727-0.002c-3.266-0.053-6.642-0.587-8.822,2.9c-0.246,0.393-1.623,0.08-2.476,0.094
		c0.012-0.847-0.275-1.879,0.109-2.493c0.502-0.8,1.535-1.27,2.339-1.88c0.021-0.294,0.043-0.587,0.064-0.879
		c-0.678-0.451-1.408-0.84-2.022-1.365c-0.953-0.816-1.568-1.858-0.517-2.959c1.16-1.214,2.188-0.464,3.11,0.481
		c0.424,0.437,0.794,0.982,1.306,1.265c0.914,0.503,1.893,1.105,2.888,1.196c2.012,0.185,4.054,0.091,6.081,0.031
		c0.464-0.014,1.11-0.221,1.348-0.563c2.474-3.587,3.214-7.312,0.937-11.35c-1.56-2.767-4.479-4.124-7.546-3.267
		c-1.814,0.507-2.074,1.146-1.06,2.725c0.913,1.421,2.017,2.748,2.72,4.262c0.296,0.636-0.225,1.651-0.374,2.494
		c-0.839-0.183-1.863-0.129-2.47-0.607c-0.758-0.595-1.174-1.625-1.736-2.469c-1.568-2.349-3.937-3.077-6.191-1.313
		c-2.409,1.886-4.456,4.252-6.559,6.505c-0.899,0.963-0.923,2.12-0.112,3.325c1.675,2.487,2.347,5.308,2.222,8.275
		c-0.062,1.45-0.436,2.888-0.705,4.56c3.492,0,6.798,0.086,10.097-0.03c2.227-0.078,3.248,1.44,4.238,2.928
		c0.263,0.395-0.037,1.617-0.456,1.899c-0.522,0.352-1.81,0.445-2.115,0.091c-1.314-1.531-2.955-1.354-4.64-1.339
		c-3.388,0.03-6.957-0.679-9.267,2.957c-0.246,0.386-1.625,0.049-2.478,0.049c0.029-0.851-0.273-2.189,0.144-2.476
		c2.551-1.749,2.284-4.059,1.776-6.572c-0.226-1.114,0.016-2.329-0.25-3.427c-0.348-1.435-0.731-3.771-1.558-3.991
		c-1.774-0.471-2.71,1.519-3.259,2.995c-1.578,4.23-3.149,8.485-4.316,12.839c-0.505,1.884-0.008,4.037,0.039,6.354
		c1.862-0.592,3.137-1.017,4.423-1.404c1.288-0.39,2.213,0.093,2.37,1.409c0.16,1.332,0.199,2.729-0.038,4.037
		c-0.107,0.593-0.954,1.343-1.571,1.459c-0.483,0.091-1.228-0.602-1.668-1.105c-0.297-0.344-0.267-0.97-0.383-1.471
		c-4.47,1.146-4.47,1.146-4.504,5.469c-0.002,0.271,0.005,0.541-0.004,0.812c-0.061,1.825,0.495,3.312,2.227,4.198
		c1.764,0.908,1.704,2.115,0.724,3.67c-1.458,2.312-1.031,4.685,0.987,6.554c2.236,2.071,7.311,2.418,10.021,0.587
		c1.034-0.697,1.998-1.064,2.829,0.04c0.887,1.181,0.349,2.335-0.791,2.877c-1.552,0.739-3.225,1.317-4.907,1.663
		C21.897,76.969,20.527,76.76,19.199,76.76z"/>
</g>
</svg>
