<?xml version="1.0" encoding="utf-8"?>
<!-- Generator: Adobe Illustrator 16.0.0, SVG Export Plug-In . SVG Version: 6.00 Build 0)  -->
<!DOCTYPE svg PUBLIC "-//W3C//DTD SVG 1.1//EN" "http://www.w3.org/Graphics/SVG/1.1/DTD/svg11.dtd">
<svg version="1.1" id="Layer_1" xmlns="http://www.w3.org/2000/svg" xmlns:xlink="http://www.w3.org/1999/xlink" x="0px" y="0px"
	 width="100px" height="100px" viewBox="0 0 100 100" enable-background="new 0 0 100 100" xml:space="preserve">
<g>
	<path d="M53.583,13.49c5.265,0,10.413,0,15.67,0c0.113,0.489,0.222,0.946,0.327,1.397c3.208,1.196,5.796,3.018,7.027,6.417
		c0.793,2.188,0.879,2.156,2.395,3.625c4.521-1.089,8.691,0.263,12.816,1.88c0.322,0.127,0.646,0.301,0.914,0.52
		c1.617,1.32,2.25,1.494,1.439,3.858c-0.154,0.454-0.117,0.975-0.184,1.587c0.375,0.24,0.748,0.561,1.18,0.738
		c1.357,0.559,2.119,1.522,2.364,2.98c0.358,2.135,0.897,4.245,1.188,6.387c1.277,9.541,0.855,19.139,0.897,28.723
		c0.009,1.906-0.015,3.813-0.033,5.721c-0.06,5.626-4.757,10.332-10.394,10.33c-12.928-0.002-25.854,0.006-38.782,0.008
		c-8.971,0.003-17.943-0.01-26.914,0.02c-0.894,0.004-1.785,0.248-2.681,0.363c-0.489,0.062-0.983,0.124-1.475,0.122
		c-4.168-0.015-8.335-0.017-12.503-0.087c-0.898-0.014-1.808-0.227-2.686-0.448c-2.032-0.514-2.955-1.996-3.271-3.95
		c-0.044-0.275-0.017-0.564-0.036-0.847c-0.606-8.949-0.6-17.91-0.443-26.87c0.067-3.801,0.256-7.602,0.492-11.396
		c0.118-1.879,0.373-3.763,0.729-5.612c0.646-3.369,2.87-5.542,5.751-7.143c2.175-1.208,4.579-1.691,6.98-2.201
		c2.295-0.487,4.593-0.524,6.929-0.417c3.31,0.153,6.587-0.33,9.871-0.712c2.65-0.308,5.279-0.689,7.844-1.419
		c1.003-0.286,1.978-0.694,2.938-1.111c1.204-0.522,2.073-1.412,2.684-2.583c0.585-1.122,1.319-2.171,1.838-3.319
		c1.065-2.357,3.017-3.696,5.267-4.614C52.705,15.036,53.453,14.62,53.583,13.49z M60.361,86.895
		c14.511,0.422,26.918-11.812,26.994-26.321c0.039-7.644-2.532-14.122-7.885-19.55c-5.214-5.289-11.683-7.974-18.934-7.874
		C45.255,33.361,33.687,44.9,33.588,60.08C33.489,75.622,46.429,87.168,60.361,86.895z M23.36,83.795
		c1.048-0.352,0.795-1.154,0.795-1.814c0.011-11.652,0.008-23.305,0.005-34.956c0-0.421,0.025-0.86-0.084-1.258
		c-0.055-0.201-0.379-0.447-0.588-0.453c-0.207-0.007-0.564,0.232-0.605,0.419c-0.104,0.473-0.086,0.978-0.086,1.47
		c-0.004,11.51-0.005,23.021-0.006,34.531c0,0.424-0.057,0.863,0.041,1.266C22.907,83.299,23.188,83.547,23.36,83.795z
		 M87.322,66.113c0.623-0.182,1.101-0.176,1.348-0.413c3.368-3.226,3.484-7.954-0.1-11.286c-0.227-0.21-0.723-0.131-1.151-0.193
		C87.988,57.314,87.965,63.238,87.322,66.113z M15.242,35.222c1.161,0.03,2.246-0.169,3.142-0.97
		c1.006-0.899,0.879-2.083-0.288-2.78c-1.581-0.946-3.951-0.652-5.257,0.653c-1.077,1.075-0.741,2.51,0.729,2.932
		C14.098,35.208,14.682,35.172,15.242,35.222z"/>
	<path d="M38.059,59.936C37.823,47.71,48.372,37.383,60.846,37.561c12.207,0.173,22.37,10.33,22.213,22.787
		C82.906,72.404,72.979,82.787,60.1,82.613C47.87,82.447,37.712,72.156,38.059,59.936z M73.354,60.205
		c0.207-7.172-5.441-13.16-12.812-13.048c-7.462,0.113-12.875,5.093-12.945,12.964c-0.067,7.514,5.964,12.716,12.849,12.85
		C67.322,73.104,73.688,66.902,73.354,60.205z"/>
</g>
</svg>
