<?xml version="1.0" encoding="utf-8"?>
<!-- Generator: Adobe Illustrator 16.0.0, SVG Export Plug-In . SVG Version: 6.00 Build 0)  -->
<!DOCTYPE svg PUBLIC "-//W3C//DTD SVG 1.1//EN" "http://www.w3.org/Graphics/SVG/1.1/DTD/svg11.dtd">
<svg version="1.1" id="Layer_1" xmlns="http://www.w3.org/2000/svg" xmlns:xlink="http://www.w3.org/1999/xlink" x="0px" y="0px"
	 width="100px" height="100px" viewBox="0 0 100 100" enable-background="new 0 0 100 100" xml:space="preserve">
<g>
	<path d="M28.451,99.584c-0.111-0.143-0.21-0.297-0.336-0.424c-1.412-1.418-2.828-2.831-4.242-4.247
		c-0.119-0.118-0.231-0.241-0.351-0.366C38.447,79.615,53.355,64.7,68.283,49.766C53.33,34.806,38.415,19.883,23.537,4.999
		c1.706-1.707,3.369-3.37,4.998-4.999c16.562,16.562,33.152,33.152,49.917,49.917c-0.146,0.082-0.392,0.16-0.556,0.322
		C61.479,66.648,45.063,83.062,28.65,99.477c-0.034,0.033-0.065,0.071-0.097,0.107C28.519,99.584,28.485,99.584,28.451,99.584z"/>
</g>
</svg>
