<?xml version="1.0" encoding="utf-8"?>
<!-- Generator: Adobe Illustrator 16.0.0, SVG Export Plug-In . SVG Version: 6.00 Build 0)  -->
<!DOCTYPE svg PUBLIC "-//W3C//DTD SVG 1.1//EN" "http://www.w3.org/Graphics/SVG/1.1/DTD/svg11.dtd">
<svg version="1.1" id="Layer_1" xmlns="http://www.w3.org/2000/svg" xmlns:xlink="http://www.w3.org/1999/xlink" x="0px" y="0px"
	 width="100px" height="100px" viewBox="0 0 100 100" enable-background="new 0 0 100 100" xml:space="preserve">
<g>
	<path d="M73.523,0c0.11,0.143,0.209,0.297,0.336,0.424c1.412,1.418,2.828,2.831,4.242,4.247c0.119,0.118,0.229,0.241,0.351,0.366
		C63.527,19.969,48.619,34.884,33.691,49.818c14.953,14.959,29.868,29.883,44.747,44.767c-1.707,1.707-3.369,3.37-4.998,4.999
		C56.877,83.021,40.287,66.432,23.522,49.667c0.146-0.082,0.392-0.16,0.556-0.322C40.496,32.936,56.911,16.521,73.324,0.107
		C73.357,0.074,73.391,0.036,73.421,0C73.455,0,73.488,0,73.523,0z"/>
</g>
</svg>
