<?xml version="1.0" encoding="utf-8"?>
<!-- Generator: Adobe Illustrator 19.2.0, SVG Export Plug-In . SVG Version: 6.00 Build 0)  -->
<svg version="1.1" id="Layer_1" xmlns="http://www.w3.org/2000/svg" xmlns:xlink="http://www.w3.org/1999/xlink" x="0px" y="0px"
	 viewBox="0 0 100 100" style="enable-background:new 0 0 100 100;" xml:space="preserve">
<g>
	<path d="M35,85c0.4-1.3,0.7-2.6,1.1-3.8c6.3-21.9,12.5-43.8,18.8-65.7c0.1-0.4,0.2-0.5,0.6-0.5c3,0,6,0,9,0c0.1,0,0.3,0,0.5,0
		c0,0.2-0.1,0.3-0.1,0.4c-6.6,23-13.2,46.1-19.7,69.1C45,84.9,44.9,85,44.6,85c-3,0-6,0-9.1,0C35.4,85,35.2,85,35,85z"/>
	<path d="M30,25.1C23.3,33.4,16.7,41.7,10,50c6.6,8.3,13.3,16.6,20,24.9c-0.2,0-0.3,0-0.4,0c-3.1,0-6.2,0-9.3,0
		c-0.2,0-0.4-0.1-0.5-0.2c-6.5-8.2-13-16.3-19.6-24.5c-0.2-0.2-0.2-0.3,0-0.5c6.5-8.2,13.1-16.3,19.6-24.5c0.1-0.1,0.3-0.2,0.4-0.2
		c3.2,0,6.4,0,9.6,0C29.8,25,29.9,25,30,25.1z"/>
	<path d="M70,74.9c6.7-8.3,13.3-16.6,20-24.9c-6.6-8.3-13.3-16.6-20-25c0.2,0,0.4,0,0.5,0c3,0,6,0,9.1,0c0.3,0,0.5,0.1,0.7,0.3
		c6.5,8.1,13,16.2,19.5,24.4c0.2,0.2,0.2,0.3,0,0.5c-6.5,8.1-13,16.3-19.6,24.4C80,74.9,79.9,75,79.7,75c-3.1,0-6.2,0-9.3,0
		C70.3,75,70.2,75,70,74.9z"/>
</g>
</svg>
