<?xml version="1.0" encoding="utf-8"?>
<!-- Generator: Adobe Illustrator 19.2.0, SVG Export Plug-In . SVG Version: 6.00 Build 0)  -->
<svg version="1.1" id="Layer_1" xmlns="http://www.w3.org/2000/svg" xmlns:xlink="http://www.w3.org/1999/xlink" x="0px" y="0px"
	 viewBox="0 0 100 100" style="enable-background:new 0 0 100 100;" xml:space="preserve">
<g>
	<path d="M45.9,60.6c0-20,0-39.9,0-59.9c2.7,0,5.5,0,8.2,0c0,20,0,39.9,0,59.9c7.3-7.3,14.5-14.5,21.7-21.7c2,2,3.9,3.9,5.8,5.8
		C71.1,55.2,60.6,65.8,50.1,76.3C39.5,65.7,29,55.2,18.4,44.6c1.9-1.9,3.8-3.8,5.8-5.8C31.4,46.1,38.6,53.3,45.9,60.6z"/>
	<path d="M87,99.3c-24.7,0-49.3,0-74,0c0-2.7,0-5.4,0-8.2c24.7,0,49.3,0,74,0C87,93.9,87,96.6,87,99.3z"/>
</g>
</svg>
