<?xml version="1.0" encoding="utf-8"?>
<!-- Generator: Adobe Illustrator 16.0.0, SVG Export Plug-In . SVG Version: 6.00 Build 0)  -->
<!DOCTYPE svg PUBLIC "-//W3C//DTD SVG 1.1//EN" "http://www.w3.org/Graphics/SVG/1.1/DTD/svg11.dtd">
<svg version="1.1" id="Layer_1" xmlns="http://www.w3.org/2000/svg" xmlns:xlink="http://www.w3.org/1999/xlink" x="0px" y="0px"
	 width="100px" height="100px" viewBox="0 0 100 100" enable-background="new 0 0 100 100" xml:space="preserve">
<g>
	<path fill="#FFFFFF" d="M0.023,99.913c33.366,0,66.663,0,99.977,0c0-12.476,0-24.887,0-37.354c-4.143,0-8.255,0-12.453,0
		c0,8.354,0,16.648,0,24.918c-25.079,0-50.073,0-75.06,0c0-25.051,0-50.044,0-75.096c8.329,0,16.605,0,24.914,0
		c0-4.169,0-8.279,0-12.381C24.906,0,12.479,0,0.023,0C0.023,33.321,0.023,66.583,0.023,99.913z M99.963,47.034
		c0-15.713,0-31.381,0-47.022c-15.71,0-31.355,0-46.999,0c-0.05,0.073-0.099,0.146-0.147,0.219
		c5.845,5.847,11.691,11.694,17.68,17.684c-8.833,8.834-17.689,17.692-26.413,26.417c3.855,3.855,7.755,7.757,11.804,11.806
		c8.779-8.779,17.637-17.637,26.592-26.592C88.269,35.334,94.099,41.166,99.963,47.034z"/>
	<path fill-rule="evenodd" clip-rule="evenodd" d="M0.023,99.913c0-33.33,0-66.592,0-99.913c12.456,0,24.883,0,37.378,0
		c0,4.103,0,8.212,0,12.381c-8.309,0-16.585,0-24.914,0c0,25.052,0,50.045,0,75.096c24.987,0,49.98,0,75.06,0
		c0-8.27,0-16.564,0-24.918c4.198,0,8.311,0,12.453,0c0,12.467,0,24.878,0,37.354C66.686,99.913,33.389,99.913,0.023,99.913z"/>
	<path fill-rule="evenodd" clip-rule="evenodd" d="M99.963,47.034c-5.864-5.868-11.694-11.7-17.483-17.49
		C73.524,38.5,64.667,47.357,55.888,56.137c-4.049-4.049-7.949-7.95-11.804-11.806c8.723-8.725,17.58-17.583,26.413-26.417
		c-5.988-5.99-11.835-11.837-17.68-17.684c0.049-0.073,0.098-0.146,0.147-0.219c15.644,0,31.289,0,46.999,0
		C99.963,15.653,99.963,31.321,99.963,47.034z"/>
</g>
</svg>
