<?xml version="1.0" encoding="utf-8"?>
<!-- Generator: Adobe Illustrator 16.0.0, SVG Export Plug-In . SVG Version: 6.00 Build 0)  -->
<!DOCTYPE svg PUBLIC "-//W3C//DTD SVG 1.1//EN" "http://www.w3.org/Graphics/SVG/1.1/DTD/svg11.dtd">
<svg version="1.1" id="Layer_1" xmlns="http://www.w3.org/2000/svg" xmlns:xlink="http://www.w3.org/1999/xlink" x="0px" y="0px"
	 width="100px" height="100px" viewBox="0 0 100 100" enable-background="new 0 0 100 100" xml:space="preserve">
<g>
	<path fill-rule="evenodd" clip-rule="evenodd" d="M99.866,53.625c-0.571,3.415-0.837,6.917-1.766,10.233
		c-4.658,16.644-15.133,28.096-31.284,34.295c-3.181,1.221-4.45,0.296-4.468-3.104c-0.02-3.716-0.005-7.432-0.005-11.146
		c-0.001-5.152-0.317-6.311-2.919-10.562c1.686-0.33,3.347-0.615,4.987-0.983c10.458-2.344,16.336-9.259,17.167-19.955
		c0.47-6.053-0.281-11.698-4.376-16.534c-0.349-0.411-0.256-1.365-0.102-2.004c0.84-3.489,0.586-6.899-0.425-10.318
		c-0.422-1.426-1.303-2.07-2.59-1.604c-3.248,1.178-6.495,2.404-9.609,3.89c-1.465,0.7-2.653,1.146-4.352,0.754
		c-6.975-1.61-13.978-1.493-20.988,0.018c-1.009,0.217-2.246-0.174-3.269-0.566c-3.369-1.291-6.657-2.794-10.041-4.048
		c-1.484-0.551-2.425,0.143-2.861,1.809c-0.881,3.367-1.13,6.675-0.309,10.107c0.203,0.848-0.244,2.087-0.8,2.847
		c-6.741,9.201-4.362,25.837,4.743,31.88c2.014,1.338,4.309,2.349,6.601,3.146c2.226,0.772,4.614,1.074,6.796,1.555
		c-0.761,1.94-1.503,3.965-2.366,5.938c-0.203,0.461-0.76,0.881-1.25,1.089c-5.05,2.124-9.681,0.544-12.9-3.886
		c-1.434-1.975-3.405-3.648-5.399-5.089c-1.334-0.966-3.139-1.301-5.15,0.071c0.777,0.808,1.494,1.479,2.124,2.223
		c1.699,2.006,3.983,3.793,4.912,6.115c2.102,5.255,5.901,7.368,11.176,7.576c1.99,0.079,3.987,0.013,6.278,0.013
		c0,2.939,0.138,6.173-0.057,9.389c-0.102,1.672-1.801,2.24-3.88,1.537c-8.355-2.823-15.381-7.633-21.17-14.263
		c-24.16-27.666-11.063-71.161,24.36-80.92c27.925-7.694,56.736,10.151,62.199,38.57c0.502,2.606,0.669,5.277,0.991,7.917
		C99.866,50.95,99.866,52.288,99.866,53.625z"/>
</g>
</svg>
