<?xml version="1.0" encoding="utf-8"?>
<!-- Generator: Adobe Illustrator 16.0.0, SVG Export Plug-In . SVG Version: 6.00 Build 0)  -->
<!DOCTYPE svg PUBLIC "-//W3C//DTD SVG 1.1//EN" "http://www.w3.org/Graphics/SVG/1.1/DTD/svg11.dtd">
<svg version="1.1" id="Layer_1" xmlns="http://www.w3.org/2000/svg" xmlns:xlink="http://www.w3.org/1999/xlink" x="0px" y="0px"
	 width="100px" height="100px" viewBox="0 0 100 100" enable-background="new 0 0 100 100" xml:space="preserve">
<g>
	<path fill="#FFFFFF" stroke="#FFFFFF" stroke-width="2" stroke-miterlimit="10" d="M14.474,93.764c0-12.773,0-25.551,0.001-38.326
		c0-0.857-0.235-1.822,0.077-2.553c0.376-0.877,1.222-1.553,1.864-2.316c0.632,0.756,1.628,1.43,1.816,2.279
		c0.312,1.406,0.109,2.93,0.109,4.403c0.002,10.67,0.001,21.34,0.001,32.319c6.592,0,12.896,0,19.583,0c0-8.258,0-16.539,0-25.062
		c8.031,0,15.685,0,23.712,0c0,8.357,0,16.646,0,25.138c6.676,0,12.983,0,19.745,0c0-5.229,0-10.229,0-15.229
		c0.001-5.896-0.114-11.796,0.085-17.688c0.049-1.414,1.141-3.983,1.756-3.985c2.812-0.003,2.006,2.489,2.014,4.165
		c0.053,12.283,0.027,24.566,0.027,36.854c-9.095,0-18.188,0-27.285,0c0-8.404,0-16.809,0-25.285c-5.735,0-10.773,0-16.222,0
		c0,8.652,0,16.97,0,25.285C32.664,93.764,23.569,93.764,14.474,93.764z"/>
	<path fill="#FFFFFF" stroke="#FFFFFF" stroke-width="2" stroke-miterlimit="10" d="M97.064,51.732
		c-2.205,1.449-3.53,0.011-4.996-1.396C79.128,37.922,66.154,25.54,53.189,13.152c-0.977-0.93-1.969-1.837-3.267-3.044
		c-0.998,0.89-1.991,1.724-2.926,2.617C33.939,25.192,20.889,37.67,7.831,50.141c-0.709,0.677-1.367,1.526-2.223,1.893
		c-0.619,0.266-1.794,0.13-2.226-0.312c-0.43-0.438-0.467-1.554-0.258-2.244c0.191-0.63,0.92-1.114,1.451-1.622
		C19.212,33.84,33.854,19.828,48.5,5.82c0.35-0.334,0.747-0.618,1.428-1.175C65.65,19.613,81.357,34.567,97.064,49.52
		C97.064,50.257,97.064,50.994,97.064,51.732z"/>
	<path fill="#FFFFFF" stroke="#FFFFFF" stroke-width="2" stroke-miterlimit="10" d="M81.377,11.176c0,5.262,0.118,10.036-0.1,14.794
		c-0.045,0.971-1.357,1.883-2.086,2.823c-0.616-0.927-1.705-1.826-1.766-2.786c-0.214-3.511-0.085-7.042-0.085-10.968
		c-3.755,0-7.056,0.169-10.319-0.093c-1.119-0.089-2.152-1.259-3.227-1.935c1.021-0.612,2.021-1.708,3.064-1.752
		C71.516,11.067,76.18,11.176,81.377,11.176z"/>
</g>
</svg>
