<?xml version="1.0" encoding="utf-8"?>
<!-- Generator: Adobe Illustrator 16.0.0, SVG Export Plug-In . SVG Version: 6.00 Build 0)  -->
<!DOCTYPE svg PUBLIC "-//W3C//DTD SVG 1.1//EN" "http://www.w3.org/Graphics/SVG/1.1/DTD/svg11.dtd">
<svg version="1.1" id="Layer_1" xmlns="http://www.w3.org/2000/svg" xmlns:xlink="http://www.w3.org/1999/xlink" x="0px" y="0px"
	 width="100px" height="100px" viewBox="0 0 100 100" enable-background="new 0 0 100 100" xml:space="preserve">
<g>
	<path d="M68.766,99.244c-12.654,0-25.309,0-37.96,0c-0.876-0.15-1.748-0.334-2.628-0.445c-1.625-0.203-3.271-0.279-4.881-0.561
		c-11.465-2.004-19.727-10.184-21.53-21.68c-0.683-4.354-0.883-8.812-0.971-13.229C0.64,55.451,0.617,47.568,0.769,39.69
		c0.104-5.403,0.203-10.857,0.993-16.186C3.518,11.66,11.759,3.495,23.587,1.65c4.276-0.667,8.651-0.862,12.987-0.945
		c7.877-0.151,15.761-0.176,23.638-0.025c5.401,0.101,10.856,0.191,16.185,0.987C88.363,3.455,96.412,11.73,98.391,23.684
		c0.387,2.331,0.633,4.685,0.943,7.027c0,12.655,0,25.309,0,37.963c-0.311,2.506-0.535,5.023-0.949,7.51
		C96.387,88.182,88.27,96.297,76.268,98.295C73.783,98.709,71.268,98.932,68.766,99.244z M50.232,9.339
		c-0.002,0.073-0.003,0.147-0.005,0.22c-4.762,0-9.528-0.117-14.284,0.037c-3.765,0.121-7.555,0.338-11.268,0.926
		c-7.578,1.197-12.883,6.529-14.074,14.138C10.02,28.374,9.74,32.166,9.69,35.928c-0.125,9.357-0.126,18.718,0.001,28.076
		c0.051,3.764,0.333,7.555,0.92,11.268c1.184,7.488,6.423,12.803,13.898,14.033c3.787,0.625,7.666,0.887,11.509,0.939
		c9.357,0.129,18.718,0.131,28.078,0c3.842-0.057,7.721-0.316,11.508-0.951c7.369-1.232,12.574-6.465,13.791-13.857
		c0.623-3.785,0.89-7.664,0.939-11.508c0.131-9.354,0.131-18.719,0-28.076c-0.053-3.842-0.279-7.732-0.959-11.505
		c-1.221-6.78-5.229-11.386-11.943-13.33c-1.951-0.565-4.012-0.934-6.037-1.021C64.344,9.688,57.287,9.544,50.232,9.339z"/>
	<path d="M75.297,50.045c0.186,13.723-11.463,25.297-25.458,25.213c-13.614-0.082-25.142-11.412-25.147-25.323
		c-0.005-13.866,11.485-25.36,25.383-25.333C63.967,24.627,75.594,36.205,75.297,50.045z M33.681,49.822
		c-0.034,9.192,7.14,16.336,16.293,16.477c8.87,0.137,16.329-7.463,16.44-16.141c0.117-9.057-7.527-16.652-16.227-16.593
		C40.976,33.629,33.715,40.683,33.681,49.822z"/>
	<path d="M76.383,17.757c3.396,0.021,5.854,2.525,5.822,5.931c-0.033,3.291-2.715,5.948-5.951,5.898
		c-3.201-0.049-5.955-2.851-5.918-6.023C70.373,20.324,73.066,17.737,76.383,17.757z"/>
</g>
</svg>
