<?xml version="1.0" encoding="utf-8"?>
<!-- Generator: Adobe Illustrator 16.0.0, SVG Export Plug-In . SVG Version: 6.00 Build 0)  -->
<!DOCTYPE svg PUBLIC "-//W3C//DTD SVG 1.1//EN" "http://www.w3.org/Graphics/SVG/1.1/DTD/svg11.dtd">
<svg version="1.1" id="Layer_1" xmlns="http://www.w3.org/2000/svg" xmlns:xlink="http://www.w3.org/1999/xlink" x="0px" y="0px"
	 width="100px" height="100px" viewBox="0 0 100 100" enable-background="new 0 0 100 100" xml:space="preserve">
<g>
	<path stroke="#000000" stroke-miterlimit="10" d="M70.433,53.025c7.999,0,15.997,0,23.996,0c0.726,0,1.398,0.166,1.792,0.824
		c0.19,0.319,0.326,0.727,0.327,1.096c0.018,8.946,0.016,17.893,0.012,26.837c-0.002,1.103-0.754,1.857-1.861,1.915
		c-0.104,0.006-0.211,0.001-0.315,0.001c-15.996,0-31.993,0-47.99,0.003c-0.745,0-1.43-0.167-1.829-0.843
		c-0.188-0.32-0.313-0.732-0.313-1.102c-0.018-8.929-0.016-17.86-0.011-26.791c0.001-1.131,0.754-1.888,1.884-1.938
		c0.135-0.006,0.271-0.002,0.406-0.002C54.498,53.025,62.466,53.025,70.433,53.025z M70.354,82.795c8.013,0,16.025,0,24.04,0
		c0.966,0,1.264-0.296,1.264-1.262c0.001-8.78,0.001-17.562,0-26.341c0-0.968-0.296-1.265-1.263-1.265c-15.998,0-31.995,0-47.993,0
		c-0.967,0-1.264,0.297-1.264,1.263c0,8.765,0,17.532,0,26.298c0,1.025,0.28,1.307,1.308,1.307
		C54.418,82.795,62.386,82.795,70.354,82.795z"/>
	<path stroke="#000000" stroke-miterlimit="10" d="M4.362,40.65c0-7.983,0-15.967,0-23.951c0-1.48,0.709-2.195,2.171-2.195
		c8.78,0,17.561,0,26.341,0c1.438,0,2.16,0.72,2.16,2.161c0,15.998,0,31.994,0,47.993c0,1.448-0.715,2.171-2.148,2.171
		c-8.795,0-17.591,0-26.387,0c-1.408,0-2.138-0.729-2.138-2.14C4.362,56.677,4.362,48.664,4.362,40.65z M34.133,40.667
		c0-8.014,0-16.029,0-24.042c0-0.904-0.314-1.217-1.218-1.217c-8.81,0-17.621,0-26.432,0c-0.904,0-1.217,0.313-1.217,1.218
		c0,16.013,0,32.027,0,48.038c0,0.968,0.298,1.263,1.264,1.263c8.765,0,17.531,0,26.296,0c1.028,0,1.308-0.279,1.308-1.308
		C34.133,56.634,34.133,48.65,34.133,40.667z"/>
	<path d="M65.791,47.502c-0.513-0.974-0.971-1.965-1.536-2.893c-2.458-4.037-5.855-7.003-10.245-8.788
		c-0.857-0.349-1.762-0.586-2.656-0.842c-0.505-0.146-0.686-0.018-0.802,0.491c-0.244,1.068-0.474,2.139-0.717,3.206
		c-0.037,0.161-0.121,0.311-0.213,0.544c-0.179-0.187-0.298-0.293-0.397-0.418c-2.072-2.632-4.141-5.266-6.212-7.9
		c-0.391-0.496-0.348-0.647,0.218-0.934c1.474-0.747,2.938-1.509,4.412-2.257c1.526-0.774,3.056-1.54,4.589-2.302
		c0.125-0.062,0.279-0.067,0.418-0.099c0.02,0.154,0.083,0.316,0.051,0.459c-0.23,1.102-0.465,2.203-0.73,3.296
		c-0.09,0.364-0.04,0.543,0.334,0.718c3.234,1.504,6.006,3.626,8.3,6.359c2.527,3.007,4.223,6.427,5.047,10.271
		c0.065,0.309,0.105,0.622,0.155,0.933C65.813,47.396,65.795,47.451,65.791,47.502z"/>
	<path stroke="#000000" stroke-width="0.5" stroke-miterlimit="10" d="M52.535,68.288c-0.01,1.479-1.232,2.692-2.71,2.688
		c-1.496-0.003-2.72-1.248-2.701-2.744c0.019-1.474,1.257-2.683,2.733-2.667C51.333,65.58,52.547,66.812,52.535,68.288z
		 M52.176,68.275c0.002-1.294-1.059-2.353-2.353-2.349c-1.274,0.005-2.325,1.047-2.338,2.318c-0.011,1.297,1.038,2.364,2.331,2.372
		C51.112,70.622,52.172,69.571,52.176,68.275z"/>
	<path stroke="#000000" stroke-width="0.5" stroke-miterlimit="10" d="M22.314,61.222c0.004,1.48-1.206,2.706-2.683,2.719
		c-1.496,0.012-2.735-1.222-2.729-2.717c0.005-1.475,1.229-2.694,2.706-2.694C21.084,58.528,22.31,59.747,22.314,61.222z
		 M17.263,61.194c-0.018,1.298,1.025,2.372,2.318,2.386c1.297,0.013,2.363-1.033,2.373-2.329c0.009-1.275-1.023-2.338-2.294-2.362
		C18.364,58.866,17.281,59.908,17.263,61.194z"/>
</g>
</svg>
