<?xml version="1.0" encoding="utf-8"?>
<!-- Generator: Adobe Illustrator 16.0.0, SVG Export Plug-In . SVG Version: 6.00 Build 0)  -->
<!DOCTYPE svg PUBLIC "-//W3C//DTD SVG 1.1//EN" "http://www.w3.org/Graphics/SVG/1.1/DTD/svg11.dtd">
<svg version="1.1" id="Layer_1" xmlns="http://www.w3.org/2000/svg" xmlns:xlink="http://www.w3.org/1999/xlink" x="0px" y="0px"
	 width="100px" height="100px" viewBox="0 0 100 100" enable-background="new 0 0 100 100" xml:space="preserve">
<g>
	<path display="none" d="M22.743,7.351c25.492,0,50.87,0,76.424,0c0,18.188,0,36.342,0,54.723c-25.401,0-50.84,0-76.424,0
		C22.743,43.851,22.743,25.696,22.743,7.351z M94.627,11.878c-22.641,0-44.961,0-67.279,0c0,15.323,0,30.432,0,45.613
		c22.491,0,44.82,0,67.279,0C94.627,42.226,94.627,27.115,94.627,11.878z"/>
	<path display="none" d="M12.511,88.189c22.705-3.547,44.947-7.022,67.278-10.512c0-0.961,0-1.714,0-2.682
		c1.193-0.232,2.439-0.477,4-0.781c0.383,2.336,0.727,4.438,1.145,7.001c-25.359,3.972-50.555,7.916-76.005,11.9
		c-2.826-18.05-5.633-35.981-8.479-54.151c2.292-0.395,4.4-0.759,6.795-1.17c0.266,1.319,0.512,2.546,0.791,3.931
		c-0.909,0.377-1.673,0.695-2.62,1.088C7.768,57.85,10.113,72.854,12.511,88.189z"/>
	<path display="none" d="M10.194,22.736c2.504-0.211,4.566-0.383,6.97-0.585c0.084,1.359,0.16,2.615,0.246,3.995
		c-0.897,0.295-1.684,0.556-2.624,0.865c0.985,15.17,1.965,30.271,2.972,45.812c22.652-1.47,45.174-2.929,67.834-4.396
		c0.126-0.916,0.237-1.735,0.376-2.753c1.263,0,2.522,0,4.062,0c0.162,2.104,0.326,4.235,0.521,6.744
		c-25.635,1.668-51.039,3.318-76.816,4.995C12.553,59.184,11.381,41.085,10.194,22.736z"/>
	<path d="M47.755,82.354c-16.37-1.221-31.397-9.369-42.641-24.354c-3.674-4.896-3.516-8.284,0.515-13.478
		c18.46-23.778,52.743-35.219,83.123-7.382c12.681,11.624,12.629,17.167,0.068,28.852C77.989,76.064,65.282,82.152,47.755,82.354z
		 M50.359,74.844c15.738-0.654,28.177-7.782,38.296-19.551c2.28-2.652,2.086-4.951-0.106-7.51
		C66.23,21.771,33.991,22.394,12.27,47.91c-2.27,2.661-2.097,4.952,0.106,7.507C22.396,67.034,34.71,74.085,50.359,74.844z"/>
	<path d="M50.67,31.461c10.966,0.14,20.064,9.419,19.941,20.345c-0.126,10.956-9.428,20.064-20.356,19.932
		c-10.971-0.136-20.069-9.415-19.942-20.346C30.436,40.442,39.746,31.329,50.67,31.461z M62.886,51.731
		c0.041-7.167-5.016-12.432-12.058-12.554c-7.391-0.13-12.753,5.019-12.793,12.295c-0.042,7.349,5.196,12.59,12.538,12.554
		C57.681,63.987,62.847,58.826,62.886,51.731z"/>
</g>
</svg>
