<?xml version="1.0" encoding="utf-8"?>
<!-- Generator: Adobe Illustrator 16.0.0, SVG Export Plug-In . SVG Version: 6.00 Build 0)  -->
<!DOCTYPE svg PUBLIC "-//W3C//DTD SVG 1.1//EN" "http://www.w3.org/Graphics/SVG/1.1/DTD/svg11.dtd">
<svg version="1.1" id="Layer_1" xmlns="http://www.w3.org/2000/svg" xmlns:xlink="http://www.w3.org/1999/xlink" x="0px" y="0px"
	 width="100px" height="100px" viewBox="0 0 100 100" enable-background="new 0 0 100 100" xml:space="preserve">
<g>
	<path fill-rule="evenodd" clip-rule="evenodd" stroke="#000000" stroke-width="3" stroke-miterlimit="10" d="M34.285,36.506
		c-0.115-7.783,4.984-10.228,10.992-7.986c0-5.944-0.083-11.807,0.025-17.666c0.098-5.331,5.335-8.614,9.875-6.271
		c2.689,1.389,3.848,3.728,3.843,6.71c-0.01,6.133-0.003,12.267-0.003,18.787c2.992-1.387,5.743-1.538,8.28,0.458
		c2.519,1.981,2.683,4.777,2.554,7.81c1.094-0.294,2.021-0.638,2.978-0.785c3.729-0.572,7.621,1.814,7.664,5.38
		c0.12,9.787,0.736,19.708-0.57,29.34c-1.988,14.644-16.087,24.794-30.861,23.626c-14.69-1.16-26.418-13.206-26.896-27.939
		c-0.265-8.178-0.147-16.37-0.093-24.555c0.042-6.498,5.172-9.729,11.25-7.208C33.621,36.329,33.941,36.4,34.285,36.506z
		 M45.784,57.895c4.076,2.414,8.568,4.99,12.941,7.754c0.682,0.43,0.821,1.718,1.211,2.609c-0.955-0.149-2.129,0.006-2.834-0.496
		c-6.184-4.399-12.877-7.637-20.314-9.237c-1.673-0.36-2.437-1.091-2.377-2.933c0.129-4.003,0.069-8.012,0.029-12.019
		c-0.034-3.377-1.867-5.444-4.757-5.481c-2.918-0.038-4.862,2.02-4.877,5.343c-0.034,7.843-0.212,15.692,0.049,23.526
		c0.364,10.92,5.532,19.118,15.455,23.695c9.715,4.481,19.197,3.273,27.633-3.366c8.816-6.941,10.882-16.507,9.835-27.348
		c-4.014,1.995-7.237,1.073-9.812-2.182c-5.318,3.922-11.76,1.454-12.096-6.872c-2.465-0.215-4.965-0.434-6.926-0.604
		C47.75,53.16,46.741,55.589,45.784,57.895z M56.146,48.057c0-1.318,0-2.242,0-3.167c0-10.297,0.003-20.594-0.005-30.891
		c0-1.36,0.084-2.743-0.123-4.075c-0.338-2.167-1.846-3.252-3.949-3.23c-1.987,0.021-3.365,1.091-3.801,3.119
		c-0.124,0.576-0.13,1.184-0.13,1.777c-0.007,11.318-0.008,22.636,0.004,33.954c0,0.568,0.132,1.136,0.21,1.775
		C50.91,47.562,53.341,47.792,56.146,48.057z M45.27,43.46c0-2.891,0.042-5.781-0.012-8.671c-0.049-2.66-1.627-4.33-3.973-4.344
		c-2.331-0.015-4.034,1.632-4.073,4.289c-0.085,5.694-0.089,11.392,0.004,17.086c0.042,2.616,1.836,4.293,4.142,4.233
		c2.311-0.06,3.856-1.767,3.902-4.433C45.307,48.901,45.27,46.181,45.27,43.46z M67.106,44.295c0-2.643,0.06-5.288-0.017-7.929
		c-0.084-2.874-1.676-4.531-4.145-4.493c-2.441,0.038-3.902,1.73-3.918,4.659C59,41.734,58.999,46.936,59.029,52.136
		c0.016,2.88,1.538,4.616,3.957,4.64c2.424,0.023,4.029-1.691,4.105-4.551C67.162,49.583,67.107,46.938,67.106,44.295z
		 M77.959,49.261c0-1.701,0.089-3.409-0.021-5.104c-0.15-2.294-1.807-3.886-3.913-3.949c-2.214-0.066-4.054,1.568-4.14,3.967
		c-0.117,3.315-0.107,6.638-0.008,9.954c0.074,2.462,1.768,4.038,4.039,4.034c2.269-0.003,3.894-1.579,4.032-4.053
		C78.039,52.498,77.965,50.878,77.959,49.261z"/>
</g>
</svg>
