<?xml version="1.0" encoding="utf-8"?>
<!-- Generator: Adobe Illustrator 16.0.0, SVG Export Plug-In . SVG Version: 6.00 Build 0)  -->
<!DOCTYPE svg PUBLIC "-//W3C//DTD SVG 1.1//EN" "http://www.w3.org/Graphics/SVG/1.1/DTD/svg11.dtd">
<svg version="1.1" id="Layer_1" xmlns="http://www.w3.org/2000/svg" xmlns:xlink="http://www.w3.org/1999/xlink" x="0px" y="0px"
	 width="100px" height="100px" viewBox="0 0 100 100" enable-background="new 0 0 100 100" xml:space="preserve">
<g>
	<path fill-rule="evenodd" clip-rule="evenodd" d="M44.673,63.715c-0.923,3.603-1.948,7.065-2.685,10.587
		c-1.617,7.716-5.283,14.404-10.004,20.589c-0.387,0.508-0.991,0.849-1.496,1.266c-0.241-0.598-0.613-1.175-0.704-1.794
		c-1.187-7.993-0.739-15.87,1.321-23.72c2.084-7.94,3.833-15.972,5.689-23.973c0.122-0.524,0.013-1.164-0.167-1.688
		c-1.631-4.744-2.003-9.529-0.08-14.241c0.69-1.69,1.769-3.329,3.022-4.661c2.57-2.727,6.466-3.393,9.453-1.933
		c2.735,1.337,4.36,4.725,3.829,8.45c-0.331,2.324-0.867,4.631-1.474,6.901c-1.009,3.782-2.303,7.492-3.196,11.298
		c-1.243,5.304,2.572,9.99,8.031,10.142c4.465,0.122,7.846-1.969,10.586-5.277c2.892-3.495,4.544-7.594,5.582-11.958
		c1.162-4.893,1.808-9.859,1.046-14.861c-1.345-8.838-6.584-14.301-15.192-16.283c-8.314-1.913-16.229-0.773-23.275,4.366
		c-7.783,5.677-11.827,16.626-9.505,25.463c0.556,2.114,1.519,4.025,2.966,5.66c0.87,0.983,1.105,2,0.707,3.256
		c-0.387,1.22-0.636,2.483-0.959,3.723c-0.473,1.818-1.447,2.292-3.182,1.509c-4.671-2.106-7.566-5.822-9.067-10.578
		c-3.274-10.377-1.403-19.976,4.988-28.656C26.778,9.33,34.905,4.937,44.55,3.272c6.898-1.192,13.783-1.105,20.456,1.239
		C75.982,8.37,83.32,15.731,86.162,27.195c1.154,4.663,0.808,9.384,0.113,14.071c-0.977,6.617-3.147,12.788-7.237,18.16
		c-5.284,6.942-12.266,10.654-21.049,10.817C52.833,70.339,48.365,68.162,44.673,63.715z"/>
</g>
</svg>
