<?xml version="1.0" encoding="utf-8"?>
<!-- Generator: Adobe Illustrator 19.2.0, SVG Export Plug-In . SVG Version: 6.00 Build 0)  -->
<svg version="1.1" id="Layer_1" xmlns="http://www.w3.org/2000/svg" xmlns:xlink="http://www.w3.org/1999/xlink" x="0px" y="0px"
	 viewBox="0 0 100 100" style="enable-background:new 0 0 100 100;" xml:space="preserve">
<g id="i0JMXI.tif">
	<g>
		<path d="M12.9,58.3c0.2,0.4,0.4,0.7,0.6,1.2c-0.4,0.3-0.9,0.5-1.3,0.9c-1.7,1.4-3.6,2.6-5,4.2c-2.5,2.7-1.8,5,1.6,6.3
			c2.8,1,5.8,1.2,8.7,1.2c6.8,0.1,13.4-0.8,20.1-2c11.8-2.1,23.4-5.3,34.6-9.7c2.6-1,5.1-2.1,7.6-3.2c0-0.1,0-0.2,0.1-0.3
			c-3.2-1.8-6.4-3.6-9.6-5.4c-0.3,1.8-0.5,3.5-0.8,5.1c-0.1,0.8-0.4,1.5-0.7,2.3c-0.5,1.3-1.8,1.9-3.2,1.4
			c-11.6-4.4-22.9-9.6-33.9-15.5c-0.2-0.1-0.4-0.2-0.7-0.4c1.2-3,3-5.5,5.4-7.8c-1.4-0.5-2.6-1-3.8-1.4c0-0.1,0.1-0.2,0.1-0.3
			c1,0.4,2.1,0.7,3.1,1.1c0.6,0.2,1.1,0.2,1.7-0.2c9.2-7.1,22.5-4.9,29,4.8c0.5,0.7,0.9,0.9,1.8,0.8c2.7-0.4,5.5-0.7,8.2-1
			c0.1,0.5,0.2,0.8,0.3,1.2c-3,0.3-6,0.6-8.8,0.9c0.6,2.1,1.2,4,1.7,6c0,0.1,0.1,0.1,0,0.2c-0.2,2,1,2.9,2.6,3.7
			c2.5,1.2,4.8,2.7,7.3,4.1c0.3,0.2,0.9,0.3,1.1,0.1c3.3-1.6,6.5-3.3,9.3-5.7c0.9-0.8,1.8-1.6,2.4-2.6c1.5-2.1,1-4-1.3-5.1
			c-0.4-0.2-0.9-0.4-1.4-0.6c0.1-0.7,0.3-1.3,0.5-2.1c2.9,0.4,5.7,0.8,8.1,2.7c1.3,1.1,1.7,2.7,0.8,4.3c-0.8,1.3-1.7,2.6-2.8,3.7
			c-3.2,3-6.9,5.1-10.8,7.1c-0.5,0.3-1.1,0.5-1.7,0.9c0.4,0.3,0.7,0.5,1,0.7c2.7,2.1,5.4,4.2,8,6.4c0.9,0.8,1.5,1.8,2,2.9
			c0.6,1.1,0.1,2.2-1.1,2.5c-1.3,0.3-2.6,0.5-3.9,0.4c-6-0.4-11.7-2.2-17.4-3.9c-0.8-0.2-1.6-0.4-2.4-0.8c-2.4-1.2-4.6-0.9-7.1-0.1
			c-11.2,3.7-22.7,6.3-34.5,7.7c-5.8,0.7-11.6,1.2-17.4,0.6C8.7,75.2,6.3,74.7,4,74c-4.1-1.4-4.8-4.2-2.1-7.6c2-2.5,4.6-4.2,7.2-5.9
			C10.3,59.8,11.6,59.1,12.9,58.3z M71.2,64.5c0.1,0,0.1,0.1,0.2,0.1c5.1,1.7,10.2,3.4,15.5,4.2c1.5,0.2,3.2,0.2,4.7,0
			c1.1-0.1,1.5-1,0.9-2c-0.4-0.7-0.8-1.4-1.4-1.9c-2.3-1.9-4.7-3.7-7.2-5.5c-0.2-0.2-0.6-0.2-0.9-0.1C79.1,61.1,75.2,62.8,71.2,64.5
			z"/>
		<path d="M26.7,33.4c-2.3-0.5-4.6-1.2-6.9-1.6c-1.6-0.3-3.2-0.4-4.8-0.5c-0.4,0-0.9,0.1-1.3,0.2c-1.2,0.3-1.6,1-0.9,2.2
			c0.4,0.6,0.8,1.2,1.3,1.7c3,3,6.6,5.3,10.3,7.5C36.3,50.1,49,56,62,61.2c0.4,0.1,0.7,0.3,1.3,0.5c-0.4,0.1-0.6,0.2-0.8,0.3
			c-7.8,2.5-15.7,4.5-23.7,6c-0.5,0.1-1.1-0.1-1.5-0.4c-4.7-3.8-7.2-8.7-7.6-14.8c0-0.2,0-0.4-0.1-0.8c-2.6,1-5.1,2.1-7.7,3.1
			c-0.1-0.3-0.3-0.5-0.4-0.9c1-0.4,2-0.9,3-1.2c1.4-0.6,2.8-1.1,4.3-1.6c0.7-0.2,1-0.5,1.1-1.4c0.1-0.9-0.5-1-1-1.3
			c-5.4-3.1-10.7-6.3-15.4-10.4c-1.3-1.2-2.6-2.5-3.6-3.9c-1.4-1.9-0.7-3.4,1.6-3.6c2.3-0.2,4.6,0,6.9,0.3c2.5,0.4,5,1.1,7.6,1.7
			c0.3,0.1,0.7,0.2,1,0.3C26.8,33.3,26.7,33.3,26.7,33.4z"/>
		<path d="M83.5,34.5c3.2,0,5.6,2.5,5.5,5.7c-0.1,3-2.6,5.5-5.6,5.5c-3.1,0-5.6-2.6-5.6-5.6C77.9,36.9,80.4,34.4,83.5,34.5z"/>
		<path d="M21.7,17.1c-2.3,0-4.2-1.9-4.2-4.3c0-2.3,1.9-4.1,4.2-4.1c2.4,0,4.2,1.9,4.2,4.2C25.9,15.3,24,17.2,21.7,17.1z"/>
		<path d="M49,87.4c0,2.2-1.7,3.8-3.8,3.8c-2.2,0-3.9-1.7-3.9-3.8c0-2.2,1.7-3.8,3.8-3.9C47.2,83.5,49,85.2,49,87.4z"/>
		<path d="M14,56.8c0-1.9,1.4-3.4,3.3-3.4c1.8,0,3.3,1.5,3.4,3.3c0,1.9-1.4,3.4-3.3,3.4C15.5,60.2,14,58.7,14,56.8z"/>
		<path d="M74.8,24.3c-1.4,0-2.4-1-2.4-2.4c0-1.3,1.1-2.3,2.4-2.3c1.3,0,2.3,1.1,2.4,2.4C77.2,23.3,76.1,24.3,74.8,24.3z"/>
		<path d="M70.1,78c0-1.3,1-2.3,2.3-2.3c1.3,0,2.4,1.1,2.4,2.4c0,1.3-1.1,2.3-2.4,2.3C71.1,80.4,70.1,79.3,70.1,78z"/>
		<path d="M27.6,34.4c0-1.1,0.9-2.1,2.1-2.1c1.2,0,2.2,1,2.1,2.1c0,1.2-1,2.1-2.2,2.1C28.5,36.5,27.6,35.6,27.6,34.4z"/>
	</g>
</g>
</svg>
