<?xml version="1.0" encoding="utf-8"?>
<!-- Generator: Adobe Illustrator 16.0.0, SVG Export Plug-In . SVG Version: 6.00 Build 0)  -->
<!DOCTYPE svg PUBLIC "-//W3C//DTD SVG 1.1//EN" "http://www.w3.org/Graphics/SVG/1.1/DTD/svg11.dtd">
<svg version="1.1" id="Layer_1" xmlns="http://www.w3.org/2000/svg" xmlns:xlink="http://www.w3.org/1999/xlink" x="0px" y="0px"
	 width="100px" height="100px" viewBox="0 0 100 100" enable-background="new 0 0 100 100" xml:space="preserve">
<g>
	<path d="M2,31.829c0-0.067,0-0.129,0-0.19c0.325-0.23,0.661-0.448,0.969-0.7c5.674-4.616,11.27-9.326,17.045-13.813
		c2.162-1.675,4.638-3.036,7.136-4.179c5.063-2.319,10.441-0.594,13.477,4.044c1.311,2.005,2.168,4.224,2.633,6.537
		c0.901,4.481,1.686,8.985,2.453,13.488c1.014,5.955,2.117,11.886,4.335,17.528c0.634,1.596,1.518,3.136,2.526,4.524
		c1.126,1.558,2.487,1.665,4.067,0.561c0.783-0.549,1.538-1.177,2.189-1.876c4.105-4.447,7.299-9.511,9.886-14.967
		c0.919-1.927,1.479-3.944,1.553-6.1c0.106-3.137-1.283-5.366-4.011-5.876c-1.439-0.274-2.975-0.302-4.442-0.151
		c-1.675,0.173-3.315,0.667-5.001,1.03c0.957-3.046,2.229-5.937,3.903-8.642c2.555-4.134,5.876-7.455,10.323-9.573
		c4.598-2.185,9.478-2.795,14.474-2.331c6.347,0.594,10.116,3.966,11.545,10.021c0.263,1.116,0.403,2.252,0.599,3.378
		c0,1.557,0,3.114,0,4.672c-0.217,1.249-0.374,2.509-0.66,3.747c-1.39,5.999-4.336,11.298-7.618,16.417
		c-4.066,6.353-8.771,12.235-13.689,17.947c-4.582,5.32-9.438,10.357-15.112,14.536c-3.479,2.561-7.182,4.683-11.421,5.758
		c-4.593,1.17-8.632,0.393-11.915-3.231c-2.974-3.289-4.991-7.148-6.357-11.304c-1.596-4.874-2.918-9.831-4.419-14.737
		c-1.714-5.613-3.4-11.243-5.277-16.804c-0.918-2.739-2.229-5.343-4.413-7.372c-1.435-1.333-2.627-1.552-4.302-0.616
		c-1.714,0.952-3.366,2.006-5.046,3.014c-0.286,0.173-0.577,0.335-0.88,0.509C5.009,35.296,3.507,33.56,2,31.829z"/>
</g>
</svg>
