<?xml version="1.0" encoding="utf-8"?>
<!-- Generator: Adobe Illustrator 16.0.0, SVG Export Plug-In . SVG Version: 6.00 Build 0)  -->
<!DOCTYPE svg PUBLIC "-//W3C//DTD SVG 1.1//EN" "http://www.w3.org/Graphics/SVG/1.1/DTD/svg11.dtd">
<svg version="1.1" id="Layer_1" xmlns="http://www.w3.org/2000/svg" xmlns:xlink="http://www.w3.org/1999/xlink" x="0px" y="0px"
	 width="100px" height="100px" viewBox="0 0 100 100" enable-background="new 0 0 100 100" xml:space="preserve">
<g>
	<path stroke="#000000" stroke-miterlimit="10" d="M0,83.094c2.945-1.693,5.892-3.384,8.835-5.08
		c2.649-1.522,5.294-3.056,7.941-4.582c0.15-0.088,0.3-0.178,0.442-0.26c-5.562-10.105-6.819-20.625-3.157-31.571
		c2.994-8.945,8.637-15.863,16.775-20.616c9.139-5.338,18.927-6.682,29.162-3.961c10.246,2.724,17.939,8.882,23.359,17.977
		c0.188-0.103,0.373-0.2,0.551-0.304c5.197-2.998,10.391-5.997,15.588-8.993c0.164-0.095,0.348-0.161,0.521-0.239
		c0,0.357,0,0.715,0,1.074c-7.494,4.319-14.986,8.639-22.479,12.962C51.854,54.32,26.168,69.143,0.479,83.964
		C0.329,84.049,0.16,84.1,0,84.167C0,83.809,0,83.449,0,83.094z M82.456,35.534c-4.739-8.718-15.394-18.128-30.638-18.823
		c-14.269-0.649-27.646,6.836-34.324,19.464c-6.448,12.188-5.921,24.402,0.528,36.522c0.26-0.143,0.416-0.225,0.567-0.311
		c5.944-3.43,11.885-6.861,17.835-10.281c0.358-0.205,0.484-0.424,0.483-0.838c-0.013-7.615-0.009-15.233-0.009-22.852
		c0-0.202,0-0.406,0-0.637c0.258,0,0.438,0.022,0.612-0.005c0.574-0.083,0.929,0.143,1.276,0.625
		c3.684,5.125,7.398,10.23,11.106,15.337c0.093,0.131,0.196,0.252,0.306,0.393c0.169-0.091,0.312-0.161,0.45-0.24
		c3.59-2.072,7.179-4.152,10.778-6.21c0.328-0.188,0.441-0.388,0.439-0.762c-0.017-2.849-0.009-5.697-0.009-8.545
		c0-0.189,0-0.375,0-0.549c0.363,0,0.645,0,0.957,0c0,3.012,0,5.985,0,9.045C69.408,43.066,75.934,39.3,82.456,35.534z
		 M37.842,61.279c3.882-2.242,7.693-4.44,11.535-6.658c-3.848-5.298-7.651-10.536-11.535-15.884
		C37.842,46.309,37.842,53.734,37.842,61.279z"/>
</g>
</svg>
